<svg width="116" height="32" viewBox="0 0 116 32" fill="none" xmlns="http://www.w3.org/2000/svg">
<path d="M18.9535 16C18.9535 17.0506 19.1578 18.0909 19.5546 19.0615C19.9515 20.0321 20.5332 20.914 21.2665 21.6569C21.9999 22.3997 22.8705 22.989 23.8286 23.391C24.7868 23.7931 25.8137 24 26.8508 24C27.8879 24 28.9148 23.7931 29.8729 23.391C30.8311 22.989 31.7017 22.3997 32.435 21.6569C33.1683 20.914 33.75 20.0321 34.1469 19.0615C34.5438 18.0909 34.7481 17.0506 34.7481 16V8H31.5891V16H31.5866C31.5032 18.5769 29.4148 20.64 26.8508 20.64C24.2867 20.64 22.1983 18.5769 22.115 16H22.1124V8H18.9535V16Z" fill="url(#paint0_linear_592_5127)"/>
<path d="M18.9535 16C18.9535 17.0506 19.1578 18.0909 19.5546 19.0615C19.9515 20.0321 20.5332 20.914 21.2665 21.6569C21.9999 22.3997 22.8705 22.989 23.8286 23.391C24.7868 23.7931 25.8137 24 26.8508 24C27.8879 24 28.9148 23.7931 29.8729 23.391C30.8311 22.989 31.7017 22.3997 32.435 21.6569C33.1683 20.914 33.75 20.0321 34.1469 19.0615C34.5438 18.0909 34.7481 17.0506 34.7481 16V8H31.5891V16H31.5866C31.5032 18.5769 29.4148 20.64 26.8508 20.64C24.2867 20.64 22.1983 18.5769 22.115 16H22.1124V8H18.9535V16Z" fill="black"/>
<path d="M100.807 19.0615C100.41 18.0909 100.205 17.0506 100.205 16V8H103.364V16H103.367C103.45 18.5769 105.539 20.64 108.103 20.64C110.667 20.64 112.755 18.5769 112.839 16H112.841V8H116V24C116 25.0506 115.796 26.0909 115.399 27.0615C115.002 28.0321 114.42 28.914 113.687 29.6569C112.954 30.3997 112.083 30.989 111.125 31.391C110.167 31.7931 109.14 32 108.103 32C107.066 32 106.039 31.7931 105.081 31.391C104.122 30.989 103.252 30.3997 102.518 29.6569C101.82 28.9495 101.259 28.116 100.865 27.2H104.719C105.579 28.0886 106.777 28.64 108.103 28.64C110.667 28.64 112.755 26.5769 112.839 24H112.841V22.4C112.313 22.8009 111.737 23.1342 111.125 23.391C110.167 23.7931 109.14 24 108.103 24C107.066 24 106.039 23.7931 105.081 23.391C104.122 22.989 103.252 22.3997 102.518 21.6569C101.785 20.914 101.203 20.0321 100.807 19.0615Z" fill="url(#paint1_linear_592_5127)"/>
<path d="M100.807 19.0615C100.41 18.0909 100.205 17.0506 100.205 16V8H103.364V16H103.367C103.45 18.5769 105.539 20.64 108.103 20.64C110.667 20.64 112.755 18.5769 112.839 16H112.841V8H116V24C116 25.0506 115.796 26.0909 115.399 27.0615C115.002 28.0321 114.42 28.914 113.687 29.6569C112.954 30.3997 112.083 30.989 111.125 31.391C110.167 31.7931 109.14 32 108.103 32C107.066 32 106.039 31.7931 105.081 31.391C104.122 30.989 103.252 30.3997 102.518 29.6569C101.82 28.9495 101.259 28.116 100.865 27.2H104.719C105.579 28.0886 106.777 28.64 108.103 28.64C110.667 28.64 112.755 26.5769 112.839 24H112.841V22.4C112.313 22.8009 111.737 23.1342 111.125 23.391C110.167 23.7931 109.14 24 108.103 24C107.066 24 106.039 23.7931 105.081 23.391C104.122 22.989 103.252 22.3997 102.518 21.6569C101.785 20.914 101.203 20.0321 100.807 19.0615Z" fill="black"/>
<path d="M39.4864 11.2C39.4864 9.43269 40.9007 8 42.6453 8V24H39.4864V11.2Z" fill="url(#paint2_linear_592_5127)"/>
<path d="M39.4864 11.2C39.4864 9.43269 40.9007 8 42.6453 8V24H39.4864V11.2Z" fill="black"/>
<path d="M60.0194 3.2C60.0194 1.43269 61.4337 0 63.1783 0V16C63.1783 20.4183 59.6425 24 55.281 24C50.9194 24 47.3837 20.4183 47.3837 16C47.3837 11.5817 50.9194 8 55.281 8C55.8219 8 56.3501 8.05509 56.8605 8.16003V11.4731C56.3664 11.2962 55.8348 11.2 55.281 11.2C52.6641 11.2 50.5426 13.349 50.5426 16C50.5426 18.651 52.6641 20.8 55.281 20.8C57.8979 20.8 60.0194 18.651 60.0194 16V3.2Z" fill="url(#paint3_linear_592_5127)"/>
<path d="M60.0194 3.2C60.0194 1.43269 61.4337 0 63.1783 0V16C63.1783 20.4183 59.6425 24 55.281 24C50.9194 24 47.3837 20.4183 47.3837 16C47.3837 11.5817 50.9194 8 55.281 8C55.8219 8 56.3501 8.05509 56.8605 8.16003V11.4731C56.3664 11.2962 55.8348 11.2 55.281 11.2C52.6641 11.2 50.5426 13.349 50.5426 16C50.5426 18.651 52.6641 20.8 55.281 20.8C57.8979 20.8 60.0194 18.651 60.0194 16V3.2Z" fill="black"/>
<path d="M12.6357 28.8C12.6357 30.5673 14.05 32 15.7946 32V16C15.7946 11.5817 12.2588 8 7.89729 8C3.53574 8 0 11.5817 0 16C0 20.4183 3.53574 24 7.89729 24C8.4382 24 8.9664 23.9449 9.47674 23.84V20.5269C8.98272 20.7038 8.4511 20.8 7.89729 20.8C5.28035 20.8 3.15891 18.651 3.15891 16C3.15891 13.349 5.28035 11.2 7.89729 11.2C10.5142 11.2 12.6357 13.349 12.6357 16V28.8Z" fill="url(#paint4_linear_592_5127)"/>
<path d="M12.6357 28.8C12.6357 30.5673 14.05 32 15.7946 32V16C15.7946 11.5817 12.2588 8 7.89729 8C3.53574 8 0 11.5817 0 16C0 20.4183 3.53574 24 7.89729 24C8.4382 24 8.9664 23.9449 9.47674 23.84V20.5269C8.98272 20.7038 8.4511 20.8 7.89729 20.8C5.28035 20.8 3.15891 18.651 3.15891 16C3.15891 13.349 5.28035 11.2 7.89729 11.2C10.5142 11.2 12.6357 13.349 12.6357 16V28.8Z" fill="black"/>
<path d="M66.3372 3.2C66.3372 1.43269 67.7515 0 69.4961 0V16.0466L77.4395 7.99994C78.6731 9.24962 78.6731 11.2757 77.4395 12.5254L73.9753 16.0347L81.8383 24H77.3709L71.7416 18.2974L69.4961 20.5721V24H66.3372V3.2Z" fill="url(#paint5_linear_592_5127)"/>
<path d="M66.3372 3.2C66.3372 1.43269 67.7515 0 69.4961 0V16.0466L77.4395 7.99994C78.6731 9.24962 78.6731 11.2757 77.4395 12.5254L73.9753 16.0347L81.8383 24H77.3709L71.7416 18.2974L69.4961 20.5721V24H66.3372V3.2Z" fill="black"/>
<path fill-rule="evenodd" clip-rule="evenodd" d="M93.2633 19.2H96.9533C96.6174 19.9788 96.1627 20.6929 95.6123 21.3189C95.2623 21.7169 94.8737 22.0793 94.4523 22.4C93.1323 23.4047 91.4914 24 89.7132 24C85.3516 24 81.8159 20.4183 81.8159 16C81.8159 11.5817 85.3516 8 89.7132 8C91.4914 8 93.1323 8.59534 94.4523 9.6C94.8737 9.92069 95.2623 10.2831 95.6123 10.6811C96.0652 11.1962 96.4533 11.771 96.7638 12.3924C96.7887 12.4288 96.8124 12.4666 96.8346 12.5056C97.2708 13.2709 97.012 14.2495 96.2565 14.6913L87.1202 20.0347C87.8659 20.5275 88.7565 20.8138 89.7132 20.8138C91.1249 20.8138 92.3929 20.1902 93.2633 19.2ZM85.1869 17.4704L93.2322 12.765C92.3629 11.7952 91.1082 11.1862 89.7132 11.1862C87.0887 11.1862 84.9611 13.3414 84.9611 16C84.9611 16.5128 85.0403 17.0069 85.1869 17.4704Z" fill="url(#paint6_linear_592_5127)"/>
<path fill-rule="evenodd" clip-rule="evenodd" d="M93.2633 19.2H96.9533C96.6174 19.9788 96.1627 20.6929 95.6123 21.3189C95.2623 21.7169 94.8737 22.0793 94.4523 22.4C93.1323 23.4047 91.4914 24 89.7132 24C85.3516 24 81.8159 20.4183 81.8159 16C81.8159 11.5817 85.3516 8 89.7132 8C91.4914 8 93.1323 8.59534 94.4523 9.6C94.8737 9.92069 95.2623 10.2831 95.6123 10.6811C96.0652 11.1962 96.4533 11.771 96.7638 12.3924C96.7887 12.4288 96.8124 12.4666 96.8346 12.5056C97.2708 13.2709 97.012 14.2495 96.2565 14.6913L87.1202 20.0347C87.8659 20.5275 88.7565 20.8138 89.7132 20.8138C91.1249 20.8138 92.3929 20.1902 93.2633 19.2ZM85.1869 17.4704L93.2322 12.765C92.3629 11.7952 91.1082 11.1862 89.7132 11.1862C87.0887 11.1862 84.9611 13.3414 84.9611 16C84.9611 16.5128 85.0403 17.0069 85.1869 17.4704Z" fill="black"/>
<defs>
<linearGradient id="paint0_linear_592_5127" x1="116" y1="3.33106" x2="-0.000727648" y2="2.69887" gradientUnits="userSpaceOnUse">
<stop stop-color="#D702D7"/>
<stop offset="0.265161" stop-color="#B49DFF"/>
<stop offset="0.496685" stop-color="#90E3FF"/>
<stop offset="0.696362" stop-color="#3A81FF"/>
<stop offset="1" stop-color="#1551BB"/>
</linearGradient>
<linearGradient id="paint1_linear_592_5127" x1="116" y1="3.33106" x2="-0.000727648" y2="2.69887" gradientUnits="userSpaceOnUse">
<stop stop-color="#D702D7"/>
<stop offset="0.265161" stop-color="#B49DFF"/>
<stop offset="0.496685" stop-color="#90E3FF"/>
<stop offset="0.696362" stop-color="#3A81FF"/>
<stop offset="1" stop-color="#1551BB"/>
</linearGradient>
<linearGradient id="paint2_linear_592_5127" x1="116" y1="3.33106" x2="-0.000727648" y2="2.69887" gradientUnits="userSpaceOnUse">
<stop stop-color="#D702D7"/>
<stop offset="0.265161" stop-color="#B49DFF"/>
<stop offset="0.496685" stop-color="#90E3FF"/>
<stop offset="0.696362" stop-color="#3A81FF"/>
<stop offset="1" stop-color="#1551BB"/>
</linearGradient>
<linearGradient id="paint3_linear_592_5127" x1="116" y1="3.33106" x2="-0.000727648" y2="2.69887" gradientUnits="userSpaceOnUse">
<stop stop-color="#D702D7"/>
<stop offset="0.265161" stop-color="#B49DFF"/>
<stop offset="0.496685" stop-color="#90E3FF"/>
<stop offset="0.696362" stop-color="#3A81FF"/>
<stop offset="1" stop-color="#1551BB"/>
</linearGradient>
<linearGradient id="paint4_linear_592_5127" x1="116" y1="3.33106" x2="-0.000727648" y2="2.69887" gradientUnits="userSpaceOnUse">
<stop stop-color="#D702D7"/>
<stop offset="0.265161" stop-color="#B49DFF"/>
<stop offset="0.496685" stop-color="#90E3FF"/>
<stop offset="0.696362" stop-color="#3A81FF"/>
<stop offset="1" stop-color="#1551BB"/>
</linearGradient>
<linearGradient id="paint5_linear_592_5127" x1="116" y1="3.33106" x2="-0.000727648" y2="2.69887" gradientUnits="userSpaceOnUse">
<stop stop-color="#D702D7"/>
<stop offset="0.265161" stop-color="#B49DFF"/>
<stop offset="0.496685" stop-color="#90E3FF"/>
<stop offset="0.696362" stop-color="#3A81FF"/>
<stop offset="1" stop-color="#1551BB"/>
</linearGradient>
<linearGradient id="paint6_linear_592_5127" x1="116" y1="3.33106" x2="-0.000727648" y2="2.69887" gradientUnits="userSpaceOnUse">
<stop stop-color="#D702D7"/>
<stop offset="0.265161" stop-color="#B49DFF"/>
<stop offset="0.496685" stop-color="#90E3FF"/>
<stop offset="0.696362" stop-color="#3A81FF"/>
<stop offset="1" stop-color="#1551BB"/>
</linearGradient>
</defs>
</svg>
